<svg width="81" height="100" viewBox="0 0 81 100" fill="none" xmlns="http://www.w3.org/2000/svg">
<path d="M1.95821 26.9128L1.77463 27.5287C0.61194 31.2238 0 35.0421 0 38.922C0 39.2299 0 39.5994 0 39.9074V39.9689C0.183582 46.3738 2.20298 53.2714 5.93582 60.4769C9.30149 66.8817 13.9522 73.533 19.8881 80.1842L20.1328 80.4921L20.4388 80.1842L37.3895 63.125L37.6343 62.8787L37.3895 62.6324L2.38657 27.3439L1.95821 26.9128Z" fill="#F9A12A"/>
<path d="M21.051 4.68066L20.8062 4.80383C17.1958 6.77457 13.8913 9.23798 11.0152 12.1325C8.13905 15.027 5.75248 18.3526 3.97786 21.9862L3.85547 22.2325L4.03905 22.4172L20.0719 38.5526L20.3167 38.799L20.5614 38.5526L37.3286 21.6782L37.5734 21.4319L37.3286 21.1855L21.2958 4.86542L21.051 4.68066Z" fill="#ED4A27"/>
<path d="M60.3987 5.17334L60.2151 5.3581L44.5495 21.1239L44.3047 21.3703L44.5495 21.6166L76.8599 54.1953L77.2883 54.6264L77.4718 54.0721C79.3689 49.1453 80.4092 44.4032 80.5315 39.9075C80.5315 39.5996 80.5315 39.23 80.5315 38.9221C80.5315 32.0246 78.6345 25.2502 75.0241 19.338C71.536 13.6105 66.5793 8.74529 60.6435 5.41968L60.3987 5.17334Z" fill="#8C267F"/>
<path d="M40.9387 66.2041L40.6939 66.4504L23.6208 83.6328L23.376 83.8791L23.6208 84.1254C28.5775 89.2986 34.1461 94.2254 40.0208 98.8443L40.2655 99.0291L40.5103 98.8443C46.6909 93.9791 52.4431 88.8059 57.5834 83.3864L57.8282 83.1401L57.5834 82.8937L41.2446 66.4504L40.9387 66.2041Z" fill="#242B64"/>
<path d="M40.266 0C35.4317 0 30.7197 0.80061 26.1914 2.46341L25.6406 2.64817L26.069 3.07927L40.7556 17.8598L41.0003 18.1061L41.2451 17.8598L55.5033 3.44878L55.9317 3.07927L55.3809 2.89451C50.6078 0.985366 45.4675 0 40.266 0Z" fill="#D12027"/>
<path d="M40.9995 24.7573L40.7548 25.0037L23.9264 41.8781L23.6816 42.186L23.9264 42.4323L60.704 79.4451L61.01 79.753L61.2548 79.4451C67.1906 72.6707 71.8413 65.9579 75.0846 59.4299L75.207 59.1835L75.0234 58.9988L41.2443 25.0037L40.9995 24.7573Z" fill="#2D98D4"/>
</svg>
