<svg width="57" height="71" viewBox="0 0 57 71" fill="none" xmlns="http://www.w3.org/2000/svg">
<path d="M1.3617 20.7147L1.23404 21.143C0.425531 23.7125 0 26.3677 0 29.0656C0 29.2798 0 29.5367 0 29.7508V29.7937C0.127659 34.2475 1.53191 39.0439 4.12765 44.0545C6.46807 48.5083 9.7021 53.1334 13.8298 57.7585L14 57.9727L14.2127 57.7585L25.9999 45.896L26.1701 45.7246L25.9999 45.5533L1.65957 21.0145L1.3617 20.7147Z" fill="#F9A12A"/>
<path d="M14.6371 5.25476L14.4669 5.34041C11.9563 6.71082 9.65839 8.42383 7.6584 10.4366C5.6584 12.4494 3.99883 14.762 2.76479 17.2886L2.67969 17.4599L2.80735 17.5884L13.9563 28.8086L14.1265 28.9799L14.2967 28.8086L25.9562 17.0745L26.1264 16.9032L25.9562 16.7319L14.8073 5.38324L14.6371 5.25476Z" fill="#ED4A27"/>
<path d="M42.0001 5.59735L41.8724 5.72583L30.9788 16.6891L30.8086 16.8604L30.9788 17.0317L53.4468 39.6862L53.7447 39.986L53.8724 39.6006C55.1915 36.1746 55.9149 32.877 56 29.7508C56 29.5366 56 29.2797 56 29.0656C56 24.2691 54.6809 19.5584 52.1702 15.4471C49.7447 11.4644 46.2979 8.08121 42.1703 5.76865L42.0001 5.59735Z" fill="#8C267F"/>
<path d="M28.4666 48.0371L28.2964 48.2084L16.4241 60.1566L16.2539 60.3279L16.4241 60.4992C19.8709 64.0966 23.7432 67.5226 27.8283 70.7345L27.9986 70.8629L28.1688 70.7345C32.4666 67.3513 36.4666 63.754 40.0411 59.9853L40.2113 59.814L40.0411 59.6427L28.6794 48.2084L28.4666 48.0371Z" fill="#242B64"/>
<path d="M27.9983 2C24.6366 2 21.36 2.55673 18.2111 3.71301L17.8281 3.84148L18.126 4.14126L28.3387 14.4193L28.509 14.5906L28.6792 14.4193L38.594 4.39821L38.8919 4.14126L38.5089 4.01278C35.1898 2.6852 31.6153 2 27.9983 2Z" fill="#D12027"/>
<path d="M28.5113 19.2158L28.3411 19.3871L16.639 31.1212L16.4688 31.3354L16.639 31.5067L42.2134 57.2446L42.4261 57.4587L42.5963 57.2446C46.724 52.5338 49.958 47.8659 52.2133 43.3264L52.2984 43.1551L52.1708 43.0266L28.6815 19.3871L28.5113 19.2158Z" fill="#2D98D4"/>
</svg>
