<svg width="1348" height="572" viewBox="0 0 1348 572" fill="none" xmlns="http://www.w3.org/2000/svg">
<path d="M201 89L207.849 502H1201L1201.5 90L201 89Z" stroke="black" stroke-width="2"/>
<path d="M200.886 519.951L1201 522.592V502.683H206.714H200.886V519.951Z" fill="white" fill-opacity="0.3"/>
<path d="M189.209 519.341C187.373 517.554 177.382 517.513 172.722 517.716C151.866 516.061 116.118 520.002 100.385 524.626L97 525.75C97.9872 525.373 99.1214 524.997 100.385 524.626L189.571 495L189.209 519.341Z" fill="white" fill-opacity="0.3"/>
<path d="M207.77 520.56V530.312C207.77 536 205 536 199.857 536H178.146C176.06 535.932 172.722 536 172.722 530.718C172.722 530.393 172.722 521.915 172.722 517.716M172.722 517.716C177.382 517.513 187.373 517.554 189.209 519.341L189.571 495L97 525.75C110.282 520.671 150.192 515.928 172.722 517.716ZM1201 522.592L200.886 519.951V502.683H206.714H1201V522.592Z" stroke="black" stroke-width="3"/>
<path d="M74 50H50V47H74V50Z" stroke="black" stroke-width="0.5"/>
<path d="M1332.49 35.5693L1319.3 39.6538L32.8342 37.9423C27.6952 39.6538 27.6952 48.2115 34.5472 48.2115L43.1122 53.3462C46.5383 55.0577 46.5383 55.0577 50.3682 57.3271C51.5 63 55.1033 65.3269 61.9554 65.3269C65.6146 65.3269 70.3016 64.2068 73.3041 58.5704L127.099 73.4901C137.177 77.9107 159.418 89.1558 167.759 98.7707V107.681L91.2359 91.518L96.6571 525.225H76.0147L69.134 91.518H91.2359L167.759 107.681V98.7707C159.418 89.1558 137.177 77.9107 127.099 73.4901L73.3041 58.5704C70.3016 64.2068 65.6146 65.3269 61.9554 65.3269C55.1033 65.3269 51.5 63 50.3682 57.3271C46.5383 55.0577 46.5383 55.0577 43.1122 53.3462L34.5472 48.2115C27.6952 48.2115 27.6952 39.6538 32.8342 37.9423L15.3387 36.1909L2.41111 4.90105C1.57707 3.40908 2.2026 2.34536 2.61962 2L1345 2.62165L1332.49 35.5693Z" fill="white" fill-opacity="0.3"/>
<path d="M1181.95 479.015H970.935V102.501H1181.95V479.015Z" fill="white" fill-opacity="0.3"/>
<path d="M1304.55 54.6333C1305.59 54.2879 1307.68 53.2242 1307.68 51.7322L1317.59 48.2115C1321.02 44.7885 1320.98 43.3838 1319.3 39.6538M1319.3 39.6538L1332.49 35.5693L1345 2.62165L2.61962 2C2.2026 2.34536 1.57707 3.40908 2.41111 4.90105L15.3387 36.1909L32.8342 37.9423M1319.3 39.6538L32.8342 37.9423M32.8342 37.9423C27.6952 39.6538 27.6952 48.2115 34.5472 48.2115L43.1122 53.3462C46.5383 55.0577 46.5383 55.0577 50.3682 57.3271C51.5 63 55.1033 65.3269 61.9554 65.3269C65.6146 65.3269 70.3016 64.2068 73.3041 58.5704L127.099 73.4901C137.177 77.9107 159.418 89.1558 167.759 98.7707V107.681L91.2359 91.518M91.2359 91.518H69.134L76.0147 525.225H96.6571L91.2359 91.518ZM1200.92 491.5V89.2885M1200.92 491.5H950.293V91M1200.92 491.5V519.215V529.154C1201.09 534.459 1201.96 535.655 1204.53 536H1230.23C1234.19 536 1235.37 533.398 1235.37 529.154V520.596M970.935 479.015H1181.95V102.501H970.935V479.015Z" stroke="black" stroke-width="3"/>
<path d="M95 57C86.25 57 81.7831 51.1463 81 48H109C105.5 56.7805 96.75 57 95 57Z" stroke="black"/>
<path d="M32.7128 40H1317.29L1319 43.5L1316.25 47L33.3818 46.6552L31 45.25V41.75L32.7128 40Z" fill="white" fill-opacity="0.3" stroke="black" stroke-width="2"/>
<path d="M1209.91 76H1086L1110.43 55L1234 55.0004L1209.91 76Z" fill="white" fill-opacity="0.3" stroke="black" stroke-width="3"/>
<path d="M1064.07 77H941L965.263 57L1088 57.0003L1064.07 77Z" fill="white" fill-opacity="0.3" stroke="black" stroke-width="3"/>
<path d="M923.907 77H800L824.428 57L948 57.0003L923.907 77Z" fill="white" fill-opacity="0.3" stroke="black" stroke-width="3"/>
<path d="M783.07 77H660L684.263 57L807 57.0003L783.07 77Z" fill="white" fill-opacity="0.3" stroke="black" stroke-width="3"/>
<path d="M642.07 77H519L543.263 57L666 57.0003L642.07 77Z" fill="white" fill-opacity="0.3" stroke="black" stroke-width="3"/>
<path d="M501.907 77H378L402.428 57L526 57.0003L501.907 77Z" fill="white" fill-opacity="0.3" stroke="black" stroke-width="3"/>
<path d="M361.07 77H238L262.263 57L385 57.0003L361.07 77Z" fill="white" fill-opacity="0.3" stroke="black" stroke-width="3"/>
<path d="M221.214 77H158.348L123 57L245 57.0003L221.214 77Z" fill="white" fill-opacity="0.3" stroke="black" stroke-width="3"/>
<path d="M1218 95L1278 69" stroke="black" stroke-width="2"/>
<path d="M1235 88V511" stroke="black" stroke-width="2"/>
<path d="M1255.52 64C1262.53 64 1266.57 56.1158 1265.93 53H1245C1245 60.3333 1250.26 64 1255.52 64Z" stroke="black"/>
<path d="M1235 510.5L1218.5 508.5L1218 86.3605L1275 62L1278.5 68.5L1235 88.5V510.5ZM1235 510.5L1278 527.5" stroke="black" stroke-width="2"/>
<path d="M1274.57 536L1218 514.147V509L1235.14 510.688L1278 527.562" stroke="black" stroke-width="2"/>
<path d="M185.058 476.593L103.148 501.604L98.4794 117.829L181.026 134.23L185.058 476.593Z" fill="white" fill-opacity="0.3"/>
<path d="M97 526L191 495.044L186.332 117.829L170.111 110.221L171.852 98.2433C179.571 98.2433 177.074 98.2433 183.361 98.2433V76M103.148 501.604L185.058 476.593L181.026 134.23L98.4794 117.829L103.148 501.604Z" stroke="black" stroke-width="2"/>
<path d="M93.3575 9.00046H67.2174C65.5807 8.97735 63.914 10.6459 64.0034 12.5959V25.4046C64.0034 28.1012 66.5746 28.9251 67.8602 29H93.3575C95.5551 29 97 27.3314 97 24.5058V12.5959C97 10.3325 95.5557 8.97752 93.3575 9.00046Z" stroke="black"/>
<path d="M67.1001 14V13.5728L67.354 13.5361L68.4844 10.4453H69.2144L70.3374 13.5361L70.5913 13.5728V14H69.3804V13.5728L69.627 13.5288L69.4707 13.0405H68.2207L68.0645 13.5288L68.311 13.5728V14H67.1001ZM68.3892 12.5156H69.3022L68.8872 11.2974L68.853 11.1899H68.8384L68.8018 11.3047L68.3892 12.5156Z" fill="black"/>
<path d="M81 22.9273V16.3091L82.4894 13H93.2128L95 15.6V22.9273L93.7082 23.8727V26H90.5319V23.8727H85.1702V26H82.4894V23.8727L81 22.9273Z" stroke="black" stroke-width="0.3"/>
<path d="M121.5 17.5C121.5 21.8917 117.722 25.5 113 25.5C108.278 25.5 104.5 21.8917 104.5 17.5C104.5 13.1083 108.278 9.5 113 9.5C117.722 9.5 121.5 13.1083 121.5 17.5Z" stroke="black"/>
<circle cx="137.5" cy="17.5" r="8" stroke="black"/>
<circle cx="161.5" cy="17.5" r="8" stroke="black"/>
<circle cx="185.5" cy="17.5" r="8" stroke="black"/>
<circle cx="209.5" cy="17.5" r="8" stroke="black"/>
<circle cx="233.5" cy="17.5" r="8" stroke="black"/>
<rect x="1218.5" y="9.5" width="19" height="19" stroke="black"/>
<rect x="1252.5" y="9.5" width="20" height="19" stroke="black"/>
<path d="M1285.5 9.5H1306.5V28.5H1285.5V9.5Z" stroke="black"/>
<path d="M1235 87.5L1277.47 70L1276.5 78.5L1274.5 85L1277.47 90L1278 421.5L1273.5 426.5L1279.5 434.5V440L1273 444L1276.5 451L1275.5 455L1276.5 469.5L1274.5 474L1278 483.5V493L1274.5 502L1272.5 514.5L1279 527L1235 510V87.5Z" fill="white" fill-opacity="0.3"/>
<path d="M1297.2 66.6954C1297.2 70.1192 1297.28 71.0055 1297.2 71.8311C1302.1 72.987 1300.8 77.846 1298.98 79.4284L1299.15 81.9051C1304.97 82.8959 1302.94 85.4828 1301.2 86.6524C1301.92 88.1385 1301.65 90.043 1300.67 90.6623L1301.2 272.126L1302.56 277.575C1304 279.5 1304 281 1302.56 282.115L1302.1 283.973C1303.01 286.78 1302.03 290.372 1301.42 291.816L1302.1 293.468C1303.5 295 1303.54 296.426 1302.56 297.596C1303.47 300.238 1302.18 301.586 1301.42 301.93V417.928C1302.7 418.258 1304.22 421.093 1303.92 422.469C1305.74 422.799 1306.19 424.258 1306.19 424.946C1312.37 426.762 1308.77 429.28 1306.19 430.312C1306.01 432.294 1304.15 432.927 1303.24 432.996V439.6C1305.42 439.931 1307.02 441.94 1307.55 442.903C1311.55 444.554 1309.22 446.343 1307.55 447.031C1305.56 448.352 1303.62 451.243 1303.24 453.101C1309.42 454.092 1308.92 457.557 1307.55 458.589C1305.56 460.571 1305.79 466.993 1305.87 470.709C1311.86 470.874 1310.36 474.62 1309.14 475.721L1307.55 479.23C1305.56 482.862 1306.27 490.651 1306.87 494.091C1316.14 515.391 1310.28 523.606 1306.19 525.051C1306.56 527.693 1305.87 529.802 1305.87 530.626C1305.87 531.45 1306.87 533.101 1306.87 533.101C1306.87 533.101 1309.83 534.821 1310.05 535.784C1312.32 535.991 1313.69 539.499 1313.69 539.912C1315.87 539.417 1317.77 543.971 1318 545.691V562.823C1318 565.3 1317.09 566.469 1316.64 566.744C1290.66 573.349 1272.06 568.396 1266 565.093V545.279C1266.29 544.384 1266 545.279 1267.14 543.008C1267.14 540.897 1269 539 1270.09 538.467C1270.09 538.467 1273.68 534.546 1273.72 534.958C1276.5 534.958 1276 532.5 1275.99 531.45C1275.99 527.5 1277.35 528.216 1278.26 527.115C1278.99 526.455 1278.26 525.464 1277.81 525.051C1276.99 523.744 1278.26 523.778 1275.99 521.542C1268.76 516.93 1274.55 500.902 1277.81 492.646L1277.35 481.294C1277.35 478.982 1274.33 475.377 1272.81 473.863L1273.27 472.831L1277.35 471.593V462.924C1276.99 461.108 1275.08 458.314 1274.17 457.145C1273.63 456.484 1273.95 455.769 1274.17 455.494L1277.35 453.636V450.333C1277.35 447.857 1273.27 445.999 1272.81 445.999C1271 445.504 1271.45 444.279 1271.9 443.729L1279.85 439.6V434.647C1280.03 433.161 1278.26 432.514 1277.35 432.376L1275.76 429.487L1271.9 427.216V425.565L1274.17 424.946L1277.35 422.469V418.754L1278.94 417.928V301.517C1278.94 299.371 1276.36 297.904 1276.9 297V295V293.468L1277.58 291.197V289.546C1278.85 288.886 1277.66 287.895 1276.9 287.482V282.115C1275.26 281.29 1276.67 279.432 1277.58 278.607C1277.22 276.955 1278.34 275.992 1278.94 275.717L1277.81 90.3676C1277.26 88.5512 1275.31 87.4092 1274.4 87.0653C1273.31 86.735 1273.5 84 1274.5 83.5L1276.67 81.9051V79.4284C1273.95 76.9515 1278.5 76 1276.67 73.4427C1275.5 70 1279 69.5 1277.81 68.2826C1275.81 66.6314 1274.7 62.9162 1274.4 61.265C1273.49 61.0998 1273.27 60.0953 1273.27 59.6137C1273.27 59.1182 1271.6 58.7193 1270.77 58.5817C1269.94 58.4442 1268.95 56.724 1270.09 55.8983C1280.99 51.7703 1297.18 52.9399 1303.92 54.0407C1307.74 54.7012 1307.33 55.8296 1306.65 56.3112C1305.87 58.1358 1304.13 57.723 1304.13 58.1358C1303.92 59.6137 1302.41 59.4073 1302.1 59.6137C1302.1 61.0998 1300.67 65.1316 1297.2 66.6954ZM1297.2 66.6954C1297.2 72.5 1297 66.7941 1297.2 66.6954Z" stroke="black" stroke-width="3"/>
<path d="M1283 91V273" stroke="black" stroke-width="0.5"/>
<path d="M1283 300V416" stroke="black" stroke-width="0.5"/>
<path d="M1288 91V273" stroke="black" stroke-width="0.5"/>
<path d="M1288 300V416" stroke="black" stroke-width="0.5"/>
<path d="M1293 91V273" stroke="black" stroke-width="0.5"/>
<path d="M1293 300V416" stroke="black" stroke-width="0.5"/>
<path d="M1277.5 526C1283.84 526 1297.41 526 1307 526" stroke="black"/>
<path d="M1276 531C1279.92 532.99 1294.32 534.268 1305 531" stroke="black" stroke-width="2"/>
<path d="M1268 540C1278.15 546.917 1294.5 549.48 1313.5 540.5" stroke="black" stroke-width="2"/>
<path d="M1266 546.86C1276.8 551.584 1303.71 556.337 1317.5 545" stroke="black" stroke-width="2"/>
<path d="M1276 472C1280.67 472 1292.8 472 1304 472" stroke="black" stroke-width="0.5"/>
<path d="M1276 454C1281.24 454 1294.18 454 1304 454" stroke="black" stroke-width="0.5"/>
<path d="M1277.71 420C1281.25 421.882 1292.92 424.516 1301.59 420M1276 425.31C1282.82 430.619 1297.13 430.516 1305 426" stroke="black" stroke-width="0.5"/>
<path d="M1276 431.65C1280.07 434.14 1298.38 437.626 1305 431.65" stroke="black" stroke-width="0.5"/>
<path d="M1279 440C1283.4 440 1294.55 440 1304 440" stroke="black" stroke-width="0.5"/>
<path d="M1279 416C1284.5 416 1295.39 416 1302 416" stroke="black" stroke-width="0.5"/>
<path d="M1276 74C1280.75 74 1293.16 74 1298 74" stroke="black" stroke-width="0.5"/>
<path d="M1276 81C1280.59 81 1297.05 81 1300 81" stroke="black" stroke-width="0.5"/>
<path d="M1277.5 91C1280.89 91 1291.69 91 1300 91" stroke="black"/>
<path d="M1276 67C1280.28 67 1290.48 67 1297 67" stroke="black" stroke-width="0.5"/>
<path d="M1273 60C1276.47 60 1293.96 60 1302 60" stroke="black" stroke-width="0.5"/>
<path d="M1276 286H1289H1302" stroke="black" stroke-width="0.5"/>
<path d="M1276 280H1290H1304" stroke="black" stroke-width="0.5"/>
<path d="M1276 293H1302" stroke="black" stroke-width="0.5"/>
<path d="M1279 300C1283.72 300 1295.33 300 1304 300" stroke="black" stroke-width="0.5"/>
<path d="M1279 273C1284.21 273 1296.4 273 1300 273" stroke="black"/>
<path d="M353.86 212L311.3 291.1C307.567 298.1 303.087 303.373 297.86 306.92C292.727 310.373 287.127 312.1 281.06 312.1C276.207 312.1 271.4 311.073 266.64 309.02L271.12 294.74C274.947 295.953 278.12 296.56 280.64 296.56C286.52 296.56 291.373 293.527 295.2 287.46L296.74 285.08L257.68 212H277.14L306.12 269.54L335.94 212H353.86ZM463.537 310L463.397 245.04L431.197 298.8H423.077L390.877 245.88V310H373.657V212H388.637L427.417 276.82L465.777 212H480.617L480.897 310H463.537ZM602.402 212V310H584.202V268H533.522V310H515.322V212H533.522V252.46H584.202V212H602.402ZM682.112 245.18C693.872 245.18 702.879 247.84 709.132 253.16C715.479 258.387 718.652 266.18 718.652 276.54C718.652 287.367 715.199 295.673 708.292 301.46C701.385 307.153 691.679 310 679.172 310H637.032V212H654.952V245.18H682.112ZM678.332 296C685.425 296 690.885 294.367 694.712 291.1C698.539 287.833 700.452 283.073 700.452 276.82C700.452 264.967 693.079 259.04 678.332 259.04H654.952V296H678.332ZM732.792 212H750.712V310H732.792V212ZM858.759 294.74V310H785.259V212H856.799V227.26H803.459V252.74H850.779V267.72H803.459V294.74H858.759ZM285.75 395.42C280.897 395.42 276.487 394.347 272.52 392.2C268.6 390.007 265.52 387.02 263.28 383.24C261.087 379.46 259.99 375.213 259.99 370.5C259.99 365.787 261.087 361.54 263.28 357.76C265.52 353.98 268.6 351.017 272.52 348.87C276.487 346.677 280.897 345.58 285.75 345.58C290.603 345.58 294.967 346.653 298.84 348.8C302.76 350.947 305.84 353.933 308.08 357.76C310.32 361.54 311.44 365.787 311.44 370.5C311.44 375.213 310.32 379.483 308.08 383.31C305.84 387.09 302.76 390.053 298.84 392.2C294.967 394.347 290.603 395.42 285.75 395.42ZM285.75 390.8C289.623 390.8 293.123 389.937 296.25 388.21C299.377 386.437 301.827 384.01 303.6 380.93C305.373 377.803 306.26 374.327 306.26 370.5C306.26 366.673 305.373 363.22 303.6 360.14C301.827 357.013 299.377 354.587 296.25 352.86C293.123 351.087 289.623 350.2 285.75 350.2C281.877 350.2 278.353 351.087 275.18 352.86C272.053 354.587 269.58 357.013 267.76 360.14C265.987 363.22 265.1 366.673 265.1 370.5C265.1 374.327 265.987 377.803 267.76 380.93C269.58 384.01 272.053 386.437 275.18 388.21C278.353 389.937 281.877 390.8 285.75 390.8ZM362.021 395.42C357.168 395.42 352.781 394.347 348.861 392.2C344.988 390.053 341.931 387.09 339.691 383.31C337.498 379.483 336.401 375.213 336.401 370.5C336.401 365.787 337.498 361.54 339.691 357.76C341.931 353.933 345.011 350.947 348.931 348.8C352.851 346.653 357.238 345.58 362.091 345.58C365.731 345.58 369.091 346.187 372.171 347.4C375.251 348.613 377.864 350.387 380.011 352.72L376.721 356.01C372.894 352.137 368.064 350.2 362.231 350.2C358.358 350.2 354.834 351.087 351.661 352.86C348.488 354.633 345.991 357.06 344.171 360.14C342.398 363.22 341.511 366.673 341.511 370.5C341.511 374.327 342.398 377.78 344.171 380.86C345.991 383.94 348.488 386.367 351.661 388.14C354.834 389.913 358.358 390.8 362.231 390.8C368.111 390.8 372.941 388.84 376.721 384.92L380.011 388.21C377.864 390.543 375.228 392.34 372.101 393.6C369.021 394.813 365.661 395.42 362.021 395.42ZM438.953 350.48H421.733V395H416.623V350.48H399.403V346H438.953V350.48ZM493.745 381.91H466.445L460.565 395H455.175L477.575 346H482.685L505.085 395H499.625L493.745 381.91ZM491.855 377.71L480.095 351.39L468.335 377.71H491.855ZM572.224 346V395H567.114V372.39H536.454V395H531.274V346H536.454V367.84H567.114V346H572.224ZM627.055 395.42C622.201 395.42 617.791 394.347 613.825 392.2C609.905 390.007 606.825 387.02 604.585 383.24C602.391 379.46 601.295 375.213 601.295 370.5C601.295 365.787 602.391 361.54 604.585 357.76C606.825 353.98 609.905 351.017 613.825 348.87C617.791 346.677 622.201 345.58 627.055 345.58C631.908 345.58 636.271 346.653 640.145 348.8C644.065 350.947 647.145 353.933 649.385 357.76C651.625 361.54 652.745 365.787 652.745 370.5C652.745 375.213 651.625 379.483 649.385 383.31C647.145 387.09 644.065 390.053 640.145 392.2C636.271 394.347 631.908 395.42 627.055 395.42ZM627.055 390.8C630.928 390.8 634.428 389.937 637.555 388.21C640.681 386.437 643.131 384.01 644.905 380.93C646.678 377.803 647.565 374.327 647.565 370.5C647.565 366.673 646.678 363.22 644.905 360.14C643.131 357.013 640.681 354.587 637.555 352.86C634.428 351.087 630.928 350.2 627.055 350.2C623.181 350.2 619.658 351.087 616.485 352.86C613.358 354.587 610.885 357.013 609.065 360.14C607.291 363.22 606.405 366.673 606.405 370.5C606.405 374.327 607.291 377.803 609.065 380.93C610.885 384.01 613.358 386.437 616.485 388.21C619.658 389.937 623.181 390.8 627.055 390.8ZM710.956 369.73C714.362 370.43 716.952 371.807 718.726 373.86C720.499 375.867 721.386 378.503 721.386 381.77C721.386 386.017 719.869 389.283 716.836 391.57C713.849 393.857 709.439 395 703.606 395H681.906V346H702.276C707.502 346 711.586 347.073 714.526 349.22C717.466 351.367 718.936 354.47 718.936 358.53C718.936 361.283 718.236 363.617 716.836 365.53C715.436 367.397 713.476 368.797 710.956 369.73ZM687.016 368.19H701.996C705.776 368.19 708.669 367.42 710.676 365.88C712.729 364.34 713.756 362.1 713.756 359.16C713.756 356.22 712.729 353.98 710.676 352.44C708.669 350.9 705.776 350.13 701.996 350.13H687.016V368.19ZM703.606 390.87C712.052 390.87 716.276 387.72 716.276 381.42C716.276 375.26 712.052 372.18 703.606 372.18H687.016V390.87H703.606ZM767.377 372.53H756.177V395H751.137V346H756.177V367.98H767.377L783.967 346H789.567L771.367 369.8L790.617 395H784.667L767.377 372.53ZM815.379 346H820.489V386.6L851.849 346H856.539V395H851.429V354.47L820.069 395H815.379V346Z" fill="black"/>
</svg>
