<svg width="40" height="36" viewBox="0 0 40 36" fill="none" xmlns="http://www.w3.org/2000/svg">
<path fill-rule="evenodd" clip-rule="evenodd" d="M19.0595 0.762319C19.7912 0.424279 20.6344 0.424279 21.3661 0.762319C21.8694 0.994805 22.2327 1.43022 22.5573 1.92542C22.8818 2.42049 23.2389 3.09185 23.682 3.92479L23.7001 3.95896L26.6928 9.58493C26.8837 9.94387 26.9148 9.98711 26.9422 10.0152C26.9822 10.0561 27.0296 10.089 27.0819 10.1121C27.1178 10.128 27.1692 10.142 27.5722 10.1953L33.4691 10.9759L33.5082 10.9811C34.6218 11.1285 35.5089 11.2459 36.1764 11.3958C36.8318 11.543 37.4417 11.7528 37.8534 12.2001C38.4393 12.8367 38.6915 13.7121 38.534 14.5629C38.4234 15.1607 38.0185 15.6627 37.5419 16.136C37.0564 16.6181 36.3677 17.1894 35.5032 17.9066L35.4729 17.9318L31.1024 21.5576C30.6999 21.8915 30.6539 21.9442 30.6297 21.9859C30.5941 22.0474 30.5736 22.1165 30.5698 22.1874C30.5673 22.2356 30.5771 22.3048 30.7319 22.8044L32.748 29.309L32.7598 29.3468C33.1123 30.4843 33.3922 31.3871 33.5436 32.0892C33.6913 32.774 33.7614 33.4435 33.5128 34.0173C33.1615 34.8281 32.4421 35.4207 31.579 35.6101C30.9681 35.7442 30.3245 35.547 29.6807 35.2709C29.0205 34.9877 28.188 34.5401 27.1391 33.976L27.1044 33.9574L20.7669 30.5496C20.3932 30.3487 20.341 30.3293 20.3011 30.3213C20.2428 30.3097 20.1828 30.3097 20.1246 30.3213C20.0847 30.3293 20.0324 30.3487 19.6587 30.5496L13.3212 33.9574L13.2864 33.9761C12.2375 34.5401 11.4051 34.9877 10.7449 35.2709C10.1012 35.547 9.45753 35.7442 8.84665 35.6101C7.9836 35.4207 7.26413 34.8281 6.91285 34.0173C6.66422 33.4435 6.7344 32.774 6.88208 32.0892C7.03352 31.387 7.31334 30.4843 7.66593 29.3467L7.67762 29.309L9.69375 22.8044C9.84859 22.3048 9.85839 22.2356 9.85583 22.1874C9.85206 22.1165 9.83154 22.0474 9.79595 21.9859C9.77181 21.9442 9.72578 21.8915 9.32324 21.5576L4.9528 17.9318L4.92238 17.9065C4.05791 17.1894 3.36924 16.618 2.88375 16.136C2.40715 15.6627 2.0023 15.1607 1.89166 14.5629C1.73418 13.7121 1.98633 12.8367 2.5723 12.2001C2.98399 11.7528 3.5939 11.543 4.24922 11.3958C4.91677 11.2459 5.80388 11.1285 6.91745 10.9811L6.95652 10.9759L12.8534 10.1953C13.2565 10.142 13.3079 10.128 13.3437 10.1121C13.396 10.089 13.4434 10.0561 13.4834 10.0152C13.5108 9.98711 13.5419 9.94387 13.7328 9.58493L16.7255 3.95896L16.7437 3.9248C17.1868 3.09185 17.5439 2.42049 17.8684 1.92542C18.193 1.43022 18.5563 0.994805 19.0595 0.762319ZM20.7371 2.12403C20.4045 1.97038 20.0212 1.97038 19.6886 2.12403C19.5809 2.17377 19.4095 2.31043 19.1229 2.74772C18.8406 3.17838 18.5153 3.78832 18.0498 4.6634L15.0571 10.2894C15.0465 10.3093 15.036 10.3293 15.0254 10.3492C14.8881 10.6083 14.7542 10.8609 14.5561 11.0636C14.3829 11.2409 14.1775 11.3835 13.9509 11.4838C13.6917 11.5985 13.4082 11.6355 13.1174 11.6736C13.0951 11.6765 13.0727 11.6794 13.0503 11.6824L7.15336 12.4629C5.9919 12.6167 5.17193 12.7259 4.57791 12.8594C3.96386 12.9973 3.75505 13.13 3.67599 13.2159C3.40964 13.5053 3.29503 13.9031 3.36661 14.2899C3.38786 14.4047 3.49406 14.6281 3.94065 15.0716C4.37267 15.5005 5.00885 16.0293 5.91054 16.7773L10.281 20.4031C10.3036 20.4219 10.3262 20.4405 10.3487 20.4592C10.637 20.6974 10.9174 20.929 11.0942 21.2346C11.2485 21.5011 11.3374 21.8004 11.3537 22.1078C11.3724 22.4604 11.2641 22.8076 11.1526 23.1645C11.1439 23.1925 11.1352 23.2205 11.1265 23.2485L9.11038 29.7531C8.74351 30.9367 8.48412 31.776 8.34837 32.4054C8.20718 33.0601 8.24337 33.3152 8.28922 33.421C8.44889 33.7895 8.77592 34.0589 9.16822 34.145C9.28087 34.1697 9.53815 34.1564 10.1536 33.8924C10.7454 33.6385 11.5194 33.2231 12.6108 32.6363L18.9483 29.2285C18.9692 29.2173 18.9899 29.2061 19.0107 29.1949C19.2796 29.0497 19.5418 28.9082 19.8305 28.8504C20.0829 28.8 20.3428 28.8 20.5952 28.8504C20.8839 28.9082 21.146 29.0497 21.415 29.1949C21.4357 29.2061 21.4565 29.2173 21.4773 29.2285L27.8148 32.6363C28.9062 33.2231 29.6802 33.6385 30.272 33.8924C30.8875 34.1564 31.1448 34.1697 31.2574 34.145C31.6497 34.0589 31.9768 33.7895 32.1364 33.421C32.1823 33.3152 32.2185 33.0601 32.0773 32.4054C31.9415 31.776 31.6822 30.9367 31.3153 29.7531L29.2992 23.2485C29.2905 23.2204 29.2817 23.1925 29.273 23.1645C29.1616 22.8076 29.0532 22.4604 29.0719 22.1078C29.0883 21.8004 29.1772 21.5011 29.3314 21.2346C29.5083 20.929 29.7886 20.6974 30.0769 20.4592C30.0995 20.4405 30.1221 20.4219 30.1447 20.4031L34.5151 16.7773C35.4168 16.0293 36.053 15.5005 36.485 15.0716C36.9316 14.6281 37.0378 14.4047 37.0591 14.2899C37.1306 13.9031 37.016 13.5053 36.7497 13.2159C36.6706 13.13 36.4618 12.9973 35.8478 12.8594C35.2537 12.7259 34.4338 12.6167 33.2723 12.4629L27.3754 11.6824C27.353 11.6794 27.3306 11.6765 27.3083 11.6736C27.0175 11.6355 26.734 11.5985 26.4748 11.4838C26.2482 11.3835 26.0428 11.2409 25.8695 11.0636C25.6714 10.8609 25.5376 10.6083 25.4003 10.3492C25.3897 10.3293 25.3791 10.3093 25.3685 10.2894L22.3758 4.66341C21.9104 3.78832 21.5851 3.17838 21.3028 2.74772C21.0161 2.31043 20.8447 2.17377 20.7371 2.12403Z" fill="#8C267F"/>
</svg>
