<svg width="39" height="36" viewBox="0 0 39 36" fill="none" xmlns="http://www.w3.org/2000/svg">
<path fill-rule="evenodd" clip-rule="evenodd" d="M8.33075 8.6912e-08H8.36406H30.0808H30.1141C31.346 -4.86027e-06 32.3165 -8.91339e-06 33.0974 0.0638C33.8942 0.128898 34.5596 0.26413 35.1642 0.572216C36.1521 1.07555 36.9552 1.8787 37.4586 2.86655C37.7667 3.4712 37.9019 4.13657 37.967 4.93334C38.0308 5.71434 38.0308 6.68483 38.0308 7.91679V7.91684V7.91688V7.95V28.0469V28.08V28.0801V28.0801C38.0308 29.3121 38.0308 30.2826 37.967 31.0636C37.9019 31.8603 37.7667 32.5257 37.4586 33.1304C36.9552 34.1182 36.1521 34.9214 35.1642 35.4247C34.5596 35.7328 33.8942 35.868 33.0975 35.9331C32.3165 35.9969 31.3461 35.9969 30.1142 35.9969H30.1142H30.1141H30.0808H8.36407H8.33074H8.33069H8.33065C7.09879 35.9969 6.12836 35.9969 5.3474 35.9331C4.55063 35.868 3.88527 35.7328 3.28061 35.4247C2.29276 34.9214 1.48961 34.1182 0.986279 33.1304C0.678193 32.5257 0.542961 31.8603 0.477863 31.0636C0.414054 30.2826 0.414058 29.3121 0.414063 28.0802V28.0469V7.95V7.91669V7.91669C0.414058 6.68478 0.414054 5.71432 0.477863 4.93334C0.542961 4.13657 0.678193 3.4712 0.986279 2.86655C1.48961 1.8787 2.29276 1.07555 3.28061 0.572216C3.88526 0.26413 4.55063 0.128898 5.3474 0.0638001C6.12838 -8.75693e-06 7.09884 -4.86029e-06 8.33075 8.6912e-08H8.33075ZM5.46955 1.55882C4.76554 1.61634 4.31955 1.72634 3.9616 1.90873C3.25599 2.26825 2.68231 2.84193 2.32279 3.54754C2.1404 3.90549 2.0304 4.35148 1.97288 5.05548C1.91465 5.76824 1.91406 6.67751 1.91406 7.95V26.7321L11.2085 17.8546L11.2311 17.833C11.6341 17.4481 11.9698 17.1274 12.2648 16.8891C12.5719 16.6411 12.8878 16.4373 13.2639 16.3302C13.8392 16.1664 14.4522 16.1947 15.01 16.4107C15.3746 16.5519 15.6704 16.7839 15.9534 17.0592C16.2252 17.3236 16.53 17.6738 16.8958 18.0942L16.9164 18.1178L23.4889 25.6694L23.9852 25.1869L26.33 22.9072L26.3529 22.8849C26.7679 22.4815 27.1128 22.1461 27.4158 21.8976C27.7306 21.6393 28.0552 21.4271 28.4425 21.3183C29.0333 21.1524 29.6627 21.1888 30.2304 21.4219C30.6026 21.5746 30.9005 21.8229 31.1833 22.1157C31.4556 22.3976 31.7596 22.7705 32.1252 23.2192L32.1454 23.244L36.5305 28.6246C36.5308 28.4407 36.5308 28.2484 36.5308 28.0469V7.95C36.5308 6.67751 36.5302 5.76824 36.472 5.05548C36.4144 4.35148 36.3044 3.90549 36.1221 3.54754C35.7625 2.84193 35.1889 2.26825 34.4832 1.90873C34.1253 1.72634 33.6793 1.61634 32.9753 1.55882C32.2625 1.50058 31.3533 1.5 30.0808 1.5H8.36406C7.09157 1.5 6.18231 1.50058 5.46955 1.55882ZM1.97288 30.9414C1.91945 30.2875 1.91455 29.4682 1.91411 28.3547L2.13974 28.5909L2.68209 28.0729L12.2446 18.9393C12.676 18.5272 12.9667 18.2504 13.2074 18.056C13.4415 17.8669 13.5747 17.8013 13.6746 17.7729C13.9361 17.6984 14.2147 17.7113 14.4683 17.8095C14.5651 17.847 14.6917 17.9245 14.9075 18.1344C15.1292 18.3501 15.3932 18.6525 15.7849 19.1025L22.8777 27.252L22.8776 27.252L22.886 27.2613L28.7998 33.8322L29.3015 34.3896L30.4165 33.3862L29.9147 32.8287L24.4837 26.7943L25.0308 26.2624L27.3756 23.9827C27.8193 23.5513 28.119 23.2609 28.3672 23.0573C28.6092 22.8587 28.7464 22.791 28.8481 22.7625C29.1167 22.687 29.4027 22.7036 29.6608 22.8095C29.7586 22.8497 29.887 22.9327 30.1045 23.1578C30.3275 23.3887 30.5916 23.7119 30.9826 24.1916L35.6929 29.9712L36.1667 30.5526L36.5093 30.2735C36.5007 30.515 36.4887 30.7364 36.472 30.9414C36.4144 31.6454 36.3044 32.0914 36.1221 32.4494C35.7625 33.155 35.1889 33.7287 34.4832 34.0882C34.1253 34.2706 33.6793 34.3806 32.9753 34.4381C32.2625 34.4963 31.3533 34.4969 30.0808 34.4969H8.36407C7.09157 34.4969 6.18231 34.4963 5.46955 34.4381C4.76554 34.3806 4.31955 34.2706 3.9616 34.0882C3.25599 33.7287 2.68231 33.155 2.32279 32.4494C2.1404 32.0914 2.0304 31.6454 1.97288 30.9414ZM23.9844 12.249C23.9844 10.5784 25.4125 9.16602 27.2473 9.16602C29.0822 9.16602 30.5103 10.5784 30.5103 12.249C30.5103 13.9196 29.0822 15.332 27.2473 15.332C25.4125 15.332 23.9844 13.9196 23.9844 12.249ZM27.2473 7.66602C24.6496 7.66602 22.4844 9.68583 22.4844 12.249C22.4844 14.8122 24.6496 16.832 27.2473 16.832C29.8451 16.832 32.0103 14.8122 32.0103 12.249C32.0103 9.68583 29.8451 7.66602 27.2473 7.66602Z" fill="#8C267F"/>
</svg>
