<svg width="33" height="33" viewBox="0 0 33 33" fill="none" xmlns="http://www.w3.org/2000/svg">
<path fill-rule="evenodd" clip-rule="evenodd" d="M33 16.5C33 25.6127 25.6127 33 16.5 33C7.3873 33 0 25.6127 0 16.5C0 7.3873 7.3873 0 16.5 0C25.6127 0 33 7.3873 33 16.5ZM9.16887 23.3813C8.77835 22.9907 8.77835 22.3576 9.16887 21.9671L15.068 16.068L9.70711 10.7071C9.31658 10.3166 9.31658 9.68342 9.70711 9.29289C10.0976 8.90237 10.7308 8.90237 11.1213 9.29289L16.4822 14.6538L21.8432 9.2927C22.2338 8.90217 22.8669 8.90217 23.2574 9.2927C23.648 9.68322 23.648 10.3164 23.2574 10.7069L17.8964 16.068L23.7957 21.9673C24.1862 22.3578 24.1862 22.9909 23.7957 23.3815C23.4052 23.772 22.772 23.772 22.3815 23.3815L16.4822 17.4822L10.5831 23.3813C10.1926 23.7718 9.55939 23.7718 9.16887 23.3813Z" fill="#C4C4C4"/>
</svg>
